<?xml version="1.0" encoding="UTF-8"?>
<svg width="48px" height="36px" viewBox="0 0 48 36" version="1.1" xmlns="http://www.w3.org/2000/svg" xmlns:xlink="http://www.w3.org/1999/xlink">
    <!-- Generator: Sketch 54.1 (76490) - https://sketchapp.com -->
    <title>pic-account-1 2</title>
    <desc>Created with Sketch.</desc>
    <defs>
        <path d="M-2.2600348e-06,2 C0,0.895 0.89,0 1.99999774,0 L35.9999977,0 L47.9999977,12 L48,33.995 C48.0007962,34.5263098 47.7903607,35.0361457 47.4150428,35.4122138 C47.039725,35.7882819 46.5303103,35.9997352 45.999,36 L1.99999774,36 C1.46932284,36.0007978 0.960151342,35.7903403 0.584905501,35.4150945 C0.209659661,35.0398487 -0.000797812163,34.5306772 -2.2600348e-06,34 L-2.2600348e-06,2 Z" id="path-1"></path>
        <path d="M-2.2600348e-06,2 C0,0.895 0.89,0 1.99999774,0 L35.9999977,0 L47.9999977,12 L48,33.995 C48.0007962,34.5263098 47.7903607,35.0361457 47.4150428,35.4122138 C47.039725,35.7882819 46.5303103,35.9997352 45.999,36 L1.99999774,36 C1.46932284,36.0007978 0.960151342,35.7903403 0.584905501,35.4150945 C0.209659661,35.0398487 -0.000797812163,34.5306772 -2.2600348e-06,34 L-2.2600348e-06,2 Z" id="path-3"></path>
    </defs>
    <g id="Page-1" stroke="none" stroke-width="1" fill="none" fill-rule="evenodd">
        <g id="pic-account-1-2">
            <g id="pic-account-1">
                <g id="a-link" fill="#000000" fill-rule="nonzero">
                    <path d="M-2.2600348e-06,2 C0,0.895 0.89,0 1.99999774,0 L35.9999977,0 L47.9999977,12 L48,33.995 C48.0007962,34.5263098 47.7903607,35.0361457 47.4150428,35.4122138 C47.039725,35.7882819 46.5303103,35.9997352 45.999,36 L1.99999774,36 C1.46932284,36.0007978 0.960151342,35.7903403 0.584905501,35.4150945 C0.209659661,35.0398487 -0.000797812163,34.5306772 -2.2600348e-06,34 L-2.2600348e-06,2 Z" id="a"></path>
                </g>
                <g id="a-link" fill="#FFFFFF" fill-rule="nonzero">
                    <path d="M-2.2600348e-06,2 C0,0.895 0.89,0 1.99999774,0 L35.9999977,0 L47.9999977,12 L48,33.995 C48.0007962,34.5263098 47.7903607,35.0361457 47.4150428,35.4122138 C47.039725,35.7882819 46.5303103,35.9997352 45.999,36 L1.99999774,36 C1.46932284,36.0007978 0.960151342,35.7903403 0.584905501,35.4150945 C0.209659661,35.0398487 -0.000797812163,34.5306772 -2.2600348e-06,34 L-2.2600348e-06,2 Z" id="a"></path>
                </g>
                <g id="Clipped">
                    <mask id="mask-2" fill="white">
                        <use xlink:href="#path-1"></use>
                    </mask>
                    <g id="a"></g>
                    <g id="Group" mask="url(#mask-2)">
                        <g transform="translate(36.000000, 0.000000)" id="d-link">
                            <g>
                                <path d="M0,0 L12,0 L12,12 L2.009,12 C0.899688564,11.9994482 0.000551759086,11.1003114 0,9.991 L0,0 Z" id="d" fill="#FFFFFF" fill-rule="nonzero"></path>
                            </g>
                            <g>
                                <path d="M0,0 L12,0 L12,12 L2.009,12 C0.899688564,11.9994482 0.000551759086,11.1003114 0,9.991 L0,0 Z" id="d" fill="#FDAFA4" fill-rule="nonzero"></path>
                            </g>
                        </g>
                    </g>
                </g>
                <g id="Clipped">
                    <mask id="mask-4" fill="white">
                        <use xlink:href="#path-3"></use>
                    </mask>
                    <g id="a"></g>
                </g>
            </g>
        </g>
    </g>
</svg>